# xmcd
#
# Track frame offsets: 
#        187
#        17822
#        26465
#        37010
#        48305
#        54592
#        64852
#        77142
#        87245
#        98700
#        114080
#
# Disc length: 2296 seconds
#
# Revision: 2
# Processed by: cddbd v1.5.2PL0 Copyright (c) Steve Scherf et al.
# Submitted via: ExactAudioCopy v0.95b4
#
DISCID=8208f60b
DTITLE=The Dillards - Mountain Rock (LaserLight 15-295)
DYEAR=1990
DGENRE=Bluegrass
TTITLE0=Caney Creek
TTITLE1=Don't You Cry
TTITLE2=Reason To Believe
TTITLE3=Big Bayou
TTITLE4=Walkin' In Jerusalem
TTITLE5=I've Just Seen A Face
TTITLE6=High Sierra
TTITLE7=Never See My Home Again
TTITLE8=Somebody Touched Me
TTITLE9=Fields Have Turned Brown
TTITLE10=Orange Blossom Special
EXTD=more info\n
EXTT0=
EXTT1=
EXTT2=
EXTT3=
EXTT4=
EXTT5=
EXTT6=
EXTT7=
EXTT8=
EXTT9=
EXTT10=
PLAYORDER=
